<svg width="25" height="25" viewBox="0 0 25 25" fill="none" xmlns="http://www.w3.org/2000/svg">
<path fill-rule="evenodd" clip-rule="evenodd" d="M21.1324 5.46147C21.5376 5.46147 21.875 5.79792 21.875 6.22604V6.62187C21.875 7.03957 21.5376 7.38645 21.1324 7.38645H3.8686C3.46235 7.38645 3.125 7.03957 3.125 6.62187V6.22604C3.125 5.79792 3.46235 5.46147 3.8686 5.46147H6.9058C7.52276 5.46147 8.05969 5.02293 8.19848 4.40418L8.35753 3.69377C8.60472 2.72608 9.41822 2.08337 10.3492 2.08337H14.6508C15.5716 2.08337 16.3943 2.72608 16.6323 3.64273L16.8025 4.40314C16.9403 5.02293 17.4772 5.46147 18.0952 5.46147H21.1324ZM19.5894 19.9313C19.9065 16.9761 20.4617 9.95538 20.4617 9.88455C20.4819 9.66997 20.412 9.46684 20.2732 9.3033C20.1243 9.15018 19.9359 9.05955 19.7282 9.05955H5.27971C5.07102 9.05955 4.87245 9.15018 4.73468 9.3033C4.59487 9.46684 4.52598 9.66997 4.53611 9.88455C4.53797 9.89756 4.5579 10.1449 4.5912 10.5583C4.73915 12.395 5.15122 17.5106 5.41749 19.9313C5.60592 21.7146 6.77602 22.8355 8.4709 22.8761C9.77878 22.9063 11.1262 22.9167 12.504 22.9167C13.8017 22.9167 15.1197 22.9063 16.4681 22.8761C18.2217 22.8459 19.3908 21.7448 19.5894 19.9313Z" fill="#FF4E4E"/>
</svg>
