<svg width="25" height="25" viewBox="0 0 25 25" fill="none" xmlns="http://www.w3.org/2000/svg">
<path fill-rule="evenodd" clip-rule="evenodd" d="M8.43488 12.5C8.43488 14.7222 10.254 16.5303 12.4999 16.5303C14.7357 16.5303 16.5548 14.7222 16.5548 12.5C16.5548 10.2676 14.7357 8.45956 12.4999 8.45956C10.254 8.45956 8.43488 10.2676 8.43488 12.5ZM18.4755 6.29794C20.254 7.67168 21.7682 9.68178 22.8556 12.1969C22.9369 12.3888 22.9369 12.6111 22.8556 12.7929C20.6808 17.8232 16.8089 20.8333 12.4999 20.8333H12.4898C8.19098 20.8333 4.31902 17.8232 2.14423 12.7929C2.06293 12.6111 2.06293 12.3888 2.14423 12.1969C4.31902 7.16663 8.19098 4.16663 12.4898 4.16663H12.4999C14.6544 4.16663 16.6971 4.9141 18.4755 6.29794ZM12.5011 15.0129C13.8934 15.0129 15.0316 13.8816 15.0316 12.4977C15.0316 11.1038 13.8934 9.97249 12.5011 9.97249C12.3792 9.97249 12.2572 9.98259 12.1454 10.0028C12.1048 11.1139 11.1902 12.0028 10.0621 12.0028H10.0113C9.98081 12.1644 9.96049 12.326 9.96049 12.4977C9.96049 13.8816 11.0987 15.0129 12.5011 15.0129Z" fill="#3F3F3F"/>
</svg>
